<?xml version="1.0" encoding="UTF-8"?>
<svg id="katman_1" xmlns="http://www.w3.org/2000/svg" version="1.1" viewBox="0 0 12 12">
  <!-- Generator: Adobe Illustrator 29.1.0, SVG Export Plug-In . SVG Version: 2.1.0 Build 142)  -->
  <defs>
    <style>
      .st0 {
        fill: #c90000;
        fill-rule: evenodd;
      }
    </style>
  </defs>
  <g id="Page-1">
    <g id="_x31_0_x5F_PW_x5F_icons_x2F_01_x5F_icons_x2F_24x24_x2F_close">
      <path id="Combined-Shape" class="st0" d="M1.1,1.1c.4-.4,1-.4,1.4,0l3.5,3.5,3.5-3.5c.4-.4,1-.4,1.4,0s.4,1,0,1.4l-3.5,3.5,3.5,3.5c.4.4.4,1,0,1.4s-1,.4-1.4,0l-3.5-3.5-3.5,3.5c-.4.4-1,.4-1.4,0s-.4-1,0-1.4l3.5-3.5L1.1,2.5c-.4-.4-.4-1,0-1.4Z"/>
    </g>
  </g>
</svg>