<?xml version="1.0" encoding="UTF-8"?><svg id="katman_2" xmlns="http://www.w3.org/2000/svg" viewBox="0 0 412.64 447.64"><defs><style>.cls-1{fill:#b16668;}.cls-2{fill:#ebebeb;}.cls-3{fill:#1de6ff;}.cls-4{opacity:.4;}.cls-4,.cls-5{fill:#fff;}.cls-6{fill:#263238;}.cls-7{fill:#f28f8f;}.cls-8{fill:#fff3e6;}.cls-9{fill:#2900ff;}.cls-10{fill:#1bcddb;}.cls-11{fill:#fafafa;}.cls-12{fill:#262631;}.cls-13{opacity:.1;}.cls-14{opacity:.15;}.cls-15{fill:#f5f5f5;}.cls-16{fill:#ffa8a7;}.cls-17{fill:#455a64;}.cls-18{fill:#001244;}.cls-19{fill:#e0e0e0;}.cls-20{fill:#9a4a4d;}</style></defs><g id="Character_1"><path id="Floor" class="cls-15" d="M60.43,415.8c80.57,42.46,211.21,42.47,291.78,0,80.57-42.47,80.57-111.31,0-153.78-80.57-42.47-211.21-42.47-291.78,0-80.57,42.46-80.57,111.31,0,153.78Z"/><path id="Shadow" class="cls-19" d="M25.89,362.67l3.74,2.14c1.2.69,3.14.69,4.33,0l172.81-99.77c1.2-.69,1.19-1.81,0-2.49l-3.71-2.12c-1.2-.69-3.14-.68-4.33,0L25.88,360.18c-1.2.69-1.19,1.81,0,2.49Z"/><path id="Shadow-2" class="cls-19" d="M312.67,390.15c-20.6,11.29-53.99,11.29-74.58,0-20.6-11.29-20.6-29.6,0-40.89,20.6-11.29,53.99-11.29,74.58,0,20.6,11.29,20.6,29.6,0,40.89Z"/><path id="Shadow-3" class="cls-19" d="M365.07,313.4c-15.89,8.71-41.65,8.71-57.54,0-15.89-8.71-15.89-22.84,0-31.55,15.89-8.71,41.65-8.71,57.54,0,15.89,8.71,15.89,22.84,0,31.55Z"/><g id="Plants"><path class="cls-8" d="M356.2,275.22c-.06-5.11,3.51-15.73,8.73-22.43,5.22-6.7,13.5-11.65,19.44-9.69,5.54,1.82,5.03,9.06-1.61,13.94-6.63,4.87-16.62,11.02-19.46,19.34l-6.05,10.24-1.05-11.39Z"/><path class="cls-13" d="M356.2,275.22c-.06-5.11,3.51-15.73,8.73-22.43,5.22-6.7,13.5-11.65,19.44-9.69,5.54,1.82,5.03,9.06-1.61,13.94-6.63,4.87-16.62,11.02-19.46,19.34l-6.05,10.24-1.05-11.39Z"/><path class="cls-5" d="M355.91,282.21c.16-.02.3-.14.33-.3,3.21-17.48,17.15-31.82,25.55-35.06.19-.07.29-.29.21-.48-.07-.19-.29-.29-.48-.21-8.57,3.29-22.76,17.87-26.02,35.62-.04.2.1.4.3.43.03,0,.07,0,.1,0Z"/><path class="cls-8" d="M358.65,293.34c.79-2.88,4.24-7.66,9.86-11.65,6.22-4.41,14.14-6.49,15.93-9.88,2.15-4.08-1.31-7.86-7.75-6.98-6.44.88-17.67,9.81-19.32,23.07l1.27,5.44Z"/><path class="cls-5" d="M357.36,290.34c.14-.01.27-.11.32-.25,5.17-15,16.5-20.38,21.77-21.13.2-.03.35-.22.32-.42-.03-.2-.21-.35-.42-.32-5.83.83-17.1,6.32-22.38,21.63-.07.19.04.41.23.47.05.02.1.02.16.02Z"/></g><g id="Tab"><path class="cls-9" d="M30.55,360.15l-.76-.44c-1.21-.7-2.2-2.41-2.2-3.81V99.65c0-1.4.98-3.11,2.2-3.81L194.9.53c1.21-.7,3.18-.7,4.4,0l.76.44c1.21.7,2.2,2.41,2.2,3.81v256.25c0,1.4-.98,3.11-2.2,3.81l-165.12,95.32c-1.21.7-3.18.7-4.4,0Z"/><path class="cls-4" d="M202.24,4.42c-.15-1.14-1.07-1.55-2.18-.92L34.94,98.83c-.61.35-1.15.96-1.55,1.63l-5.15-2.97c.39-.69.94-1.29,1.55-1.65L194.9.53c1.22-.7,3.19-.7,4.4,0l.76.44c1.11.64,2.04,2.13,2.18,3.45Z"/><path class="cls-13" d="M34.57,360.33c-1.21.52-2.92.46-4.02-.17l-.77-.44c-1.21-.7-2.19-2.41-2.19-3.81V99.66c0-.7.24-1.48.64-2.16l5.15,2.97c-.39.69-.64,1.47-.64,2.16v256.26c0,1.25.79,1.84,1.83,1.44Z"/></g><g id="Tabs"><g id="Tab-2"><path class="cls-2" d="M52.21,267.48l-.76-.44c-1.21-.7-2.2-2.41-2.2-3.81v-46.06c0-1.4.98-3.11,2.2-3.81l149.91-86.63c1.21-.7,3.18-.7,4.4,0l.76.44c1.21.7,2.2,2.41,2.2,3.81v46.06c0,1.4-.98,3.11-2.2,3.81l-149.91,86.63c-1.21.7-3.18.7-4.4,0Z"/><path class="cls-11" d="M208.69,130.63c-.15-1.14-1.07-1.55-2.18-.92L56.61,216.34c-.61.35-1.15.96-1.55,1.63l-5.15-2.97c.39-.69.94-1.29,1.55-1.65l149.9-86.63c1.22-.7,3.19-.7,4.4,0l.76.44c1.11.64,2.04,2.13,2.18,3.45Z"/><path class="cls-19" d="M56.24,267.65c-1.21.52-2.92.46-4.02-.17l-.77-.44c-1.21-.7-2.19-2.41-2.19-3.81v-46.05c0-.7.24-1.48.64-2.16l5.15,2.97c-.39.69-.64,1.47-.64,2.16v46.07c0,1.25.79,1.84,1.83,1.44Z"/><path class="cls-9" d="M77.81,213.25c8.55-4.94,15.48-1.1,15.48,8.58s-6.94,21.44-15.5,26.28c-8.56,4.84-15.5.99-15.49-8.58,0-9.58,6.96-21.34,15.51-26.27Z"/></g><g id="Tab-3"><path class="cls-2" d="M52.21,329.89l-.76-.44c-1.21-.7-2.2-2.41-2.2-3.81v-46.06c0-1.4.98-3.11,2.2-3.81l149.91-86.63c1.21-.7,3.18-.7,4.4,0l.76.44c1.21.7,2.2,2.41,2.2,3.81v46.06c0,1.4-.98,3.11-2.2,3.81l-149.91,86.63c-1.21.7-3.18.7-4.4,0Z"/><path class="cls-11" d="M208.69,193.05c-.15-1.14-1.07-1.55-2.18-.92l-149.91,86.64c-.61.35-1.15.96-1.55,1.63l-5.15-2.97c.39-.69.94-1.29,1.55-1.65l149.9-86.63c1.22-.7,3.19-.7,4.4,0l.76.44c1.11.64,2.04,2.13,2.18,3.45Z"/><path class="cls-19" d="M56.24,330.07c-1.21.52-2.92.46-4.02-.17l-.77-.44c-1.21-.7-2.19-2.41-2.19-3.81v-46.05c0-.7.24-1.48.64-2.16l5.15,2.97c-.39.69-.64,1.47-.64,2.16v46.07c0,1.25.79,1.84,1.83,1.44Z"/><path class="cls-9" d="M77.81,275.67c8.55-4.94,15.48-1.1,15.48,8.58s-6.94,21.44-15.5,26.28c-8.56,4.84-15.5.99-15.49-8.58,0-9.58,6.96-21.34,15.51-26.27Z"/></g><g id="Tab-4"><path class="cls-2" d="M52.21,163.09l-.76-.44c-1.21-.7-2.2-2.41-2.2-3.81v-46.06c0-1.4.98-3.11,2.2-3.81L201.36,22.35c1.21-.7,3.18-.7,4.4,0l.76.44c1.21.7,2.2,2.41,2.2,3.81v46.06c0,1.4-.98,3.11-2.2,3.81L56.61,163.09c-1.21.7-3.18.7-4.4,0Z"/><path class="cls-11" d="M208.69,26.24c-.15-1.14-1.07-1.55-2.18-.92L56.61,111.96c-.61.35-1.15.96-1.55,1.63l-5.15-2.97c.39-.69.94-1.29,1.55-1.65L201.36,22.35c1.22-.7,3.19-.7,4.4,0l.76.44c1.11.64,2.04,2.13,2.18,3.45Z"/><path class="cls-19" d="M56.24,163.26c-1.21.52-2.92.46-4.02-.17l-.77-.44c-1.21-.7-2.19-2.41-2.19-3.81v-46.05c0-.7.24-1.48.64-2.16l5.15,2.97c-.39.69-.64,1.47-.64,2.16v46.07c0,1.25.79,1.84,1.83,1.44Z"/><path class="cls-9" d="M77.81,108.87c8.55-4.94,15.48-1.1,15.48,8.58s-6.94,21.44-15.5,26.28c-8.56,4.84-15.5.99-15.49-8.58,0-9.58,6.96-21.34,15.51-26.27Z"/></g><g id="Tab-5"><path class="cls-3" d="M62.75,221.57l-.76-.44c-1.21-.7-2.2-2.41-2.2-3.81v-46.06c0-1.4.98-3.11,2.2-3.81l149.91-86.63c1.21-.7,3.18-.7,4.4,0l.76.44c1.21.7,2.2,2.41,2.2,3.81v46.06c0,1.4-.98,3.11-2.2,3.81l-149.91,86.63c-1.21.7-3.18.7-4.4,0Z"/><path class="cls-10" d="M219.23,84.72c-.15-1.14-1.07-1.55-2.18-.92l-149.91,86.64c-.61.35-1.15.96-1.55,1.63l-5.15-2.97c.39-.69.94-1.29,1.55-1.65l149.9-86.63c1.22-.7,3.19-.7,4.4,0l.76.44c1.11.64,2.04,2.13,2.18,3.45Z"/><path class="cls-10" d="M66.77,221.74c-1.21.52-2.92.46-4.02-.17l-.77-.44c-1.21-.7-2.19-2.41-2.19-3.81v-46.05c0-.7.24-1.48.64-2.16l5.15,2.97c-.39.69-.64,1.47-.64,2.16v46.07c0,1.25.79,1.84,1.83,1.44Z"/><path class="cls-15" d="M88.34,167.35c8.55-4.94,15.48-1.1,15.48,8.58,0,9.67-6.94,21.44-15.5,26.28s-15.5.99-15.49-8.58c0-9.58,6.96-21.34,15.51-26.27Z"/><path class="cls-9" d="M88.65,195.17c-.73.42-1.42.46-1.9.09l-6.8-5.14c-.91-.69-.79-2.58.26-4.24,1.05-1.66,2.64-2.44,3.54-1.75l4.74,3.58,13.16-28.29c.82-1.77,2.39-2.95,3.51-2.65,1.12.3,1.36,1.98.54,3.74l-15.02,32.3c-.45.97-1.16,1.82-1.92,2.29-.03.02-.07.04-.1.06Z"/></g></g><path class="cls-12" d="M219.22,153.12l-4.35-2.51h0c-1.89-1.08-4.2,0-5.42.75l-2.71-1.57h0c-3.29-1.99-7.87,2.17-8.89,3.17l-1.17-.68h0c-3.49-2.1-9.83,3.53-9.83,3.53v-20.95l2.75-1.34-4.38-2.53s0,0,0,0l-.03-.02h0c-1.01-.56-2.39-.47-3.91.41h0c-3.08,1.78-5.58,6.1-5.58,9.66v48.57c-4.01-2.97-8.27-4.8-12.01-4.13-3.37.6-6.38,3.47-7.26,5.01-1.85,3.25,1.2,5.29,5.12,9.78,3.89,4.44,7.31,9.8,10.86,13.1,3.54,3.3,6.11,4.16,6.11,4.16v6.33l4.31,2.49,28.47-21.41v-6.33s4.07-16.22,5.37-22.99c1.25-6.53,2.4-16.93.25-22.33l2.33-.16h0Z"/><path class="cls-4" d="M219.22,152.12l-4.35-2.51h0c-1.89-1.08-4.2,0-5.42.75l-2.71-1.57h0c-3.29-1.99-7.87,2.17-8.89,3.17l-1.17-.68h0c-3.49-2.1-9.83,3.53-9.83,3.53v-20.95l2.75-1.34-4.38-2.53s0,0,0,0l-.03-.02h0c-1.01-.56-2.39-.47-3.91.41h0c-3.08,1.78-5.58,6.1-5.58,9.66v48.57c-4.01-2.97-8.27-4.8-12.01-4.13-3.37.6-6.38,3.47-7.26,5.01-1.85,3.25,1.2,5.29,5.12,9.78,3.89,4.44,7.31,9.8,10.86,13.1,3.54,3.3,6.11,4.16,6.11,4.16v6.33l4.31,2.49,28.47-21.41v-6.33s4.07-16.22,5.37-22.99c1.25-6.53,2.4-16.93.25-22.33l2.33-.16h0Z"/><path class="cls-12" d="M187.1,208.95l-21.54-12.43-9.43-5.45c-1.2,2.93,1.71,4.99,5.4,9.21,3.89,4.44,7.31,9.8,10.86,13.1,3.54,3.3,6.11,4.16,6.11,4.16v6.33l4.31,2.49,6.29-4.73c-.81-5.38-1.99-12.68-1.99-12.68Z"/><polygon class="cls-12" points="179.99 143.53 175.68 141.05 175.68 191.99 179.99 192.1 179.99 143.53"/><path class="cls-12" d="M213.77,156.39l3.34-2.46c-.07-.22-.14-.44-.22-.65l1.21-.08-2.68-.12-4.47-2.46c-.58.23-1.11.5-1.51.75l1.4.81,2.93,4.22Z"/><path class="cls-12" d="M201.94,155.66l3.14-2.39-4.32-2.61c-1.37.86-2.47,1.87-2.91,2.3l3,1.74,1.1.96Z"/><polygon class="cls-12" points="195.4 155.43 191.13 152.93 191.15 152.89 191.15 158.31 196.13 156.48 195.4 155.43"/><g class="cls-14"><path d="M187.1,208.95l-21.54-12.43-9.43-5.45c-1.2,2.93,1.71,4.99,5.4,9.21,3.89,4.44,7.31,9.8,10.86,13.1,3.54,3.3,6.11,4.16,6.11,4.16v6.33l4.31,2.49,6.29-4.73c-.81-5.38-1.99-12.68-1.99-12.68Z"/><polygon points="179.99 143.53 175.68 141.05 175.68 191.99 179.99 192.1 179.99 143.53"/><path d="M213.77,156.39l3.34-2.46c-.07-.22-.14-.44-.22-.65l1.21-.08-2.68-.12-4.47-2.46c-.58.23-1.11.5-1.51.75l1.4.81,2.93,4.22Z"/><path d="M201.94,155.66l3.14-2.39-4.32-2.61c-1.37.86-2.47,1.87-2.91,2.3l3,1.74,1.1.96Z"/><polygon points="195.4 155.43 191.13 152.93 191.15 152.89 191.15 158.31 196.13 156.48 195.4 155.43"/></g><path class="cls-18" d="M182.8,226.35v-6.33s-2.57-.86-6.11-4.16-6.97-8.66-10.86-13.1c-3.92-4.48-6.97-6.53-5.12-9.78.87-1.54,3.89-4.41,7.26-5.01,3.74-.67,8,1.16,12.01,4.13v-48.57c0-3.56,2.5-7.88,5.58-9.66h0c3.08-1.78,5.58-.34,5.58,3.22v21.21s7.69-6.83,10.79-2.64c0,0,7.55-7.91,10.96-1.23,0,0,5.54-4.48,8.04.72,2.5,5.2,1.3,16.17,0,22.95-1.3,6.78-5.37,22.99-5.37,22.99v6.33l-32.78,18.93Z"/><path class="cls-17" d="M191.15,167.41s.7-9.68,4.26-11.98c0,0-.05.01-.13.04-2.26,1.18-4.13,2.84-4.13,2.84v-.18c-.04.12,0,.18,0,.18v9.11Z"/><path class="cls-17" d="M201.94,155.66v8.85s.98-9.1,3.02-11.31c-1.74,1.11-3.02,2.44-3.02,2.45Z"/><path class="cls-17" d="M212.9,154.44h0v8.89s.54-8.95,2.47-10.27c-1.4.53-2.46,1.38-2.47,1.39Z"/><path class="cls-2" d="M181.23,125.27h0c-.69.4-1.25.16-1.25-.53v-7.03c0-.69.56-1.58,1.25-1.98h0c.69-.4,1.25-.16,1.25.53v7.03c0,.69-.56,1.58-1.25,1.98Z"/><path class="cls-2" d="M170.73,136.35h0c-.49.85-1.28,1.31-1.77,1.02l-4.07-2.35c-.49-.28-.49-1.2,0-2.05h0c.49-.85,1.28-1.31,1.77-1.02l4.07,2.35c.49.28.49,1.2,0,2.05Z"/><path class="cls-2" d="M166.38,150.88v.2c0,.74-.6,1.69-1.35,2.12l-5.56,3.21c-.74.43-1.35.17-1.35-.57v-.2c0-.74.6-1.69,1.35-2.12l5.56-3.21c.74-.43,1.35-.17,1.35.57Z"/><path class="cls-2" d="M196.08,133.94v-.2c0-.74.6-1.69,1.35-2.12l5.56-3.21c.74-.43,1.35-.17,1.35.57v.2c0,.74-.6,1.69-1.35,2.12l-5.56,3.21c-.74.43-1.35.17-1.35-.57Z"/><path class="cls-2" d="M191.73,124.23h0c-.49-.28-.49-1.2,0-2.05l4.07-7.04c.49-.85,1.28-1.31,1.77-1.02h0c.49.28.49,1.2,0,2.05l-4.07,7.04c-.49.85-1.28,1.31-1.77,1.02Z"/><path class="cls-6" d="M349.92,289.04v-1.14c-.45,1.34-2.53,7.08-5.69,9.96-2.51,2.29-5.93,4.93-6.8,7.49-.91,2.65,4.76,3.55,7.11,3.13,2.72-.48,6.25-2.03,8.17-4.39,1.35-1.66,2.21-3.62,3.17-4.93.96-1.3,3.18-2.76,3.7-4.27.29-.83-.05-2.64-.46-4.18-.37-1.41-.77-2.95-1.25-2.82,0,.17,0,.87,0,.87-.58.64-2.18,1.28-3.98,1.34-1.16.04-3.99-.19-3.98-1.07Z"/><path class="cls-16" d="M341.96,299.88c.78-.69,1.56-1.37,2.27-2.02,2.21-2.01,3.89-5.42,4.85-7.75.55-1.33.83-2.75.83-4.19v-4.54h7.96v7.38h0s0,0,0,0v.2l-.04.02c-.38,1.65-4.03,6.05-6.11,8.92-1.39,1.92-4.03,4.37-7.19,4.79-2.99.4-4.52-.54-2.58-2.81Z"/><path class="cls-6" d="M318.88,281.19v-1.14c-.45,1.34-2.53,7.08-5.69,9.96-2.51,2.29-5.93,4.93-6.8,7.49-.91,2.65,4.76,3.55,7.11,3.13,2.72-.48,6.25-2.03,8.17-4.39,1.35-1.66,2.21-3.62,3.17-4.93.96-1.3,3.18-2.76,3.7-4.27.29-.83-.05-2.64-.46-4.18-.37-1.41-.77-2.95-1.25-2.82,0,.17,0,.87,0,.87-.58.64-2.18,1.28-3.98,1.34-1.16.04-3.99-.19-3.98-1.07Z"/><path class="cls-16" d="M310.92,292.03c.78-.69,1.56-1.37,2.27-2.02,2.21-2.01,3.89-5.42,4.85-7.75.55-1.33.83-2.75.83-4.19v-4.54h7.96v7.38h0s0,0,0,0v.2l-.04.02c-.38,1.65-4.03,6.05-6.11,8.92-1.39,1.92-4.03,4.37-7.19,4.79-2.99.4-4.52-.54-2.58-2.81Z"/><path class="cls-18" d="M356.29,165.37c6.17,13.47-.22,60.94-.22,60.94.19,2.19,2.69,6.49,3.62,16.11,1.1,11.37-1.73,39.92-1.73,39.92,0,0-3.68,2.41-8.04.32,0,0-7.58-43-9.01-54.3-1.24-9.87-3.63-31.56-3.63-31.56l-6.79,31.51s1.74,5.53,2.15,9.74c.64,6.65-5.8,37.61-5.8,37.61,0,0-2.75,1.01-7.96.24,0,0-2.28-41.09-2.88-49.1-1.01-13.45,2.56-55.43,5.03-63.39l35.26,1.97Z"/><path class="cls-6" d="M337.27,196.8l-2-12.51s-8.47-1.76-12.32-5.37c0,0,4.03,5.01,10.02,6.66l2.25,9.63-3.93,29.17,5.98-27.58Z"/><path class="cls-16" d="M332.24,118.2s-5.98-.88-10.12,4.54c-3.19,4.16-15.37,20.03-15.37,20.03,0,0-17.96-8.99-18.85-10.06-.88-1.07-.39-3.22-.14-4.41.24-1.19.65-3.82.91-4.56.46-1.29-1.45-.94-2.58.26-1.15,1.24-1.63,3.57-2.19,3.97-.56.41-4.84-4.51-6.91-6.88-2.07-2.37-3.05-4.03-4.44-3.05-1,.71-.36,2.11,1.13,4.15,1.49,2.03,1.7,2.25,1.92,2.69.18.36-.37.65-.59.85-.4.36-1.12.95-1.17,1.51-.03.31.03.62-.06.92-.19.68-1.03.99-1.27,1.66-.17.48.02,1.02-.08,1.52-.06.32-.24.61-.3.94-.11.63.25,1.25.67,1.75,1.46,1.73,3.45,2.4,5.36,3.45,1.59.88,3.23,1.26,5.06,2.08s23.05,15.52,26.41,13.67c3.36-1.85,20.7-22.03,20.7-22.03,5-8.29,1.91-12.99,1.91-12.99Z"/><path class="cls-15" d="M345.41,118.56h0c7.91.54,8.46,4.36,10.44,8.54,1.51,3.18,1.52,6.87.37,10.19l-5.51,15.94s2.58,6.24,5.58,12.13c-13.83,7.72-31.1,3.66-35.26-1.97-.18-1.2.89-10.54,1.55-16.64-2.44-6.11-3.08-9.98-2.05-14.02,1.91-7.5,9.31-14.8,12.59-14.54l12.29.36Z"/><path class="cls-6" d="M337.81,112.01h3.07c8.93,0,16.17-7.24,16.17-16.17h0c0-8.98-7.28-16.25-16.25-16.25h-2.89c-8.98,0-16.25,7.28-16.25,16.25h0c0,8.93,7.24,16.17,16.17,16.17Z"/><path class="cls-6" d="M365.7,120.53h0c-5.27,0-9.55-4.28-9.55-9.55v-20.45h0c5.27,0,9.55,4.28,9.55,9.55v20.45Z"/><path class="cls-6" d="M357.9,86.9l-2.39,3.85c1.06.71,2.46.42,3.12-.64.66-1.06.34-2.5-.72-3.21Z"/><path class="cls-16" d="M327.46,86.75c-1.87,1.1-4.18,5.81-3.95,15.66.19,8.35,2.9,10.42,4.26,11.01,1.36.59,3.98.23,6.53-.19v5.01s-3.52,4.09-3.3,6.39c.22,2.3,5.09,2.84,8.39.6,3.3-2.25,5.41-5.66,5.41-5.66v-12.12s1.72,2.3,4.54.43c2.82-1.87,2.92-6.5,1.29-8.16s-5.16-1.14-5.82,1.16c0,0-4.07.15-9.48-2.83-5.41-2.97-7.49-8.07-7.85-11.31Z"/><path class="cls-6" d="M333.77,100.32c-.03.6.42,1.11.99,1.14.58.03,1.07-.44,1.1-1.04.03-.6-.42-1.11-.99-1.14-.58-.03-1.07.44-1.1,1.04Z"/><path class="cls-7" d="M332.55,107.4l-2.44.78c.2.7.91,1.09,1.59.88.67-.22,1.06-.96.85-1.65Z"/><path class="cls-6" d="M325.15,97.09l2.13-1.47c-.39-.61-1.18-.77-1.77-.36-.59.41-.75,1.23-.36,1.84Z"/><path class="cls-6" d="M325.64,99.56c-.03.6.42,1.11.99,1.14.58.03,1.07-.44,1.1-1.04.03-.6-.42-1.11-.99-1.14-.58-.03-1.07.44-1.1,1.04Z"/><polygon class="cls-7" points="330.77 98.95 330.61 105.28 327.28 104.25 330.77 98.95"/><path class="cls-7" d="M334.3,113.24c2.69-.35,8.21-1.94,9.08-4.13,0,0-.29,1.37-1.94,2.79-1.65,1.42-7.14,3.01-7.14,3.01v-1.67Z"/><path class="cls-13" d="M341.87,166.87c4.54-1.08,7.43-5.67,6.23-10.18-.05-.17-.09-.32-.14-.43-.89-2.14-2.8-1.86-2.8-1.86h0c1.79-1.19,3.04-3.04,3.46-5.15l1.68-9.99s.37-2.21-.43-4.85l5.56-6.43s.4.28,1.03.71c.87,2.78.74,5.82-.23,8.61l-5.51,15.94s2.58,6.24,5.58,12.13c-10.19,5.69-22.25,4.98-29.55,1.96,5.77.9,11.12.49,15.13-.46Z"/><path class="cls-16" d="M370.45,158.25c-7.18-29.35-12.49-39.14-21.21-39.03-2.55,3.04-1.84,12.24,2.18,17.82,0,0,8.97,18.93,10.4,25.66,1.26,5.91,2.68,13.35,2.59,18.43-.02.9-.39,1.76-1,2.42-1.64,1.78-1.64,3.21-2.71,5.17-.83,1.54-1.74,2.11-1.48,2.46.33.44,1.39,1.02,2.69.2.66-.42,1.09-.9,2.04-1.96,0,0-.26,2.38-1.62,5.45-1.84,4.15-1.39,6.27,4.21,4.79,3.51-.93,5.72-3.85,6.24-12.3.15-2.43.38-6.27.09-9.34-.75-8.01-1.29-15.05-2.45-19.77Z"/><path class="cls-1" d="M299.21,242.16c.77-28.57-1.52-35.41-9.13-40.65l-2.95,16.55s3.46,19.51,3.09,26c-.33,5.71-.88,12.85-2.23,17.46-.24.82-.79,1.51-1.51,1.96-1.94,1.21-2.72,2.45-4.18,3.98-1.14,1.2-2.11,1.49-1.96,1.87.19.49,1.01,1.28,2.41.85.7-.21,1.61-.77,2.75-1.49,0,0-.81,2.38-2.81,4.84-2.72,3.33-2.83,5.37,2.65,5.42,3.44.03,6.18-2.09,8.76-9.66.74-2.18,1.91-5.62,2.41-8.5,1.31-7.49,2.57-14.05,2.7-18.64Z"/><path class="cls-8" d="M283.68,199.35c3.63-.53,8.56.23,11.75,5.94,3.19,5.7,3.97,15.51,4.33,25.26,0,0-6.33,5.29-13.93,2.69l-2.16-33.88Z"/><path class="cls-13" d="M283.68,199.35c3.63-.53,8.56.23,11.75,5.94,3.19,5.7,3.97,15.51,4.33,25.26,0,0-6.33,5.29-13.93,2.69l-2.16-33.88Z"/><path class="cls-6" d="M294.36,356.46c.58.22.72,1.32.81,3.5.07,1.65.42,4.54-1.51,5.11-1.93.58-4.77.28-6.01-1.28-1.55-1.94-2.59-3.65-4.8-6.03-1.92-2.06-3.99-3.98-4.76-6.86-.7-2.61-.12-3.74,1.66-4.5,2.45-1.04,6.29,2.36,8.2,2.9,1.65.46,5.84,6.93,6.41,7.15Z"/><path class="cls-1" d="M294.36,354.44v2.68s-2.79,2.14-6.77.18c-.12-.26-.7-3.83-.7-3.83l7.48.97Z"/><path class="cls-6" d="M272.65,371.91s.77,2.33,1.18,4.37c.33,1.62.8,4.33.23,5.55-.57,1.22-2.78,2.01-6.21,1.98-2.22-.02-5.69,1.49-8.06,2.82-2.45,1.37-7.54,1.91-10.13,1.61-3.05-.36-6.22-2.13-6.71-3.39-.49-1.26.16-2.58,7.36-5.64.07-.03,10-3.26,13.48-7.1l8.86-.18Z"/><path class="cls-1" d="M272.65,369.01s0,1.99,0,3.13c.01,1.14-1.33,2.83-4.81,2.71-2.44-.09-4.14-.74-4.05-2.75v-2.9l8.86-.18Z"/><path class="cls-18" d="M296.1,318.87c-1.23-8.76-3.17-13.96-3.17-13.96,0,0,.96-12.04,1.42-23.46.5-12.33-.03-27.84.21-30.92,0,0-39.8-8.05-40.51,6.21-.71,14.26,1.57,50.56,2.04,56.82.47,6.26,1.55,11.8,2.85,21.96,1.28,10.02,4.86,33.68,4.86,33.68,4.55,2.46,8.86-.18,8.86-.18,0,0,2.8-28.51,2.51-35.74-.36-8.83-2.74-15.78-2.74-15.78,0,0,.75-11.76,1.42-21.98s1.37-15.14,1.53-19.59l.86-.42s.87,17.64,1.34,23.91c.47,6.26,1.47,12.27,3.28,23.9,1.57,10.09,6.25,31.45,6.25,31.45,4.55,2.46,7.26-.32,7.26-.32,0,0,2.97-26.81,1.74-35.57Z"/><path class="cls-6" d="M275.37,275.93s9.66-4.76,14.49-9.05c0,0-4.49,6.32-10.38,9.13,0,0-2.1,21.92-2.08,21.48l-1.21-21.59-.82.03Z"/><polygon class="cls-1" points="266.77 194.83 269.13 207.8 280.84 206.94 278.38 192.25 266.77 194.83"/><path class="cls-8" d="M293.21,204.99c-1.16-3.52-5.63-7.36-10.11-6.53-8.22,1.53-14.74,3.16-19.6,4.89-4.1,1.46-7.83,5-8.17,18.48,0,0-1.37,31.41-1.4,37.49,10.29,4.07,20.99,3.95,26.9,2.65,12.31-2.69,13.8-7.8,13.8-7.8,0,0,.16-22.59-.21-32.35-.31-8.29-.42-14.42-1.22-16.84Z"/><path class="cls-1" d="M257.74,179.07s-2.97,4.73-2.61,5.18c.36.45,2.63.81,2.63.81l-.02-6Z"/><path class="cls-1" d="M265.99,165.97c-6.19,1.45-7.93,4.23-8.29,14.12-.38,10.34.75,13.56,2.14,14.92.94.92,6.03.97,8.58.21,3.19-.96,10.4-3.7,13.68-8.97,3.86-6.2,4.73-14.51.37-17.81-6.14-4.65-13.96-3.07-16.48-2.48Z"/><path class="cls-20" d="M266.91,195.54c2.1-1.69,1.91-2.78,1.91-2.78-1.51,1.41-7.08,2.61-8.99,2.25.78.76,4.4.93,7.07.53Z"/><path class="cls-6" d="M257.76,168.54c1.82,3.11,5.76,4.6,5.76,4.6,1.19,1.35.53,6.63,2.62,7.47,0,0,.9-3.84,4.13-3.43,3.25.41,3.78,4.53,1.8,7.08-1.99,2.55-3.91,1.64-3.91,1.64,0,0,.22,5.45,2.71,8.49,0,0,2.77.83,7.81-.36,3.09-.73,7.41-4.72,9.16-8.88,3.71-8.8,3.81-16.64-1.8-18.86-.69-4-3.89-5.73-7.51-6.47-7.79-1.61-12.82,3.26-18.81,2.83-3.43-.24-4.08,2.26-1.95,5.9Z"/><path class="cls-6" d="M286.16,167.62l3.67-2.28c-.63-1.01-1.96-1.33-2.98-.7-1.01.63-1.33,1.96-.7,2.98Z"/><path class="cls-1" d="M263.82,204.3s-5.82,1.08-8.86,5.68c-3.04,4.6-16.19,21.1-16.19,21.1,0,0-18.92-9.47-19.85-10.59-.93-1.12-.41-3.39-.15-4.64.26-1.25.68-4.02.96-4.8.49-1.36-1.53-.99-2.71.28-1.21,1.3-1.71,3.76-2.31,4.19-.59.43-5.09-4.75-7.28-7.25-2.18-2.5-3.21-4.25-4.67-3.22-1.06.74-.38,2.23,1.19,4.37,1.57,2.14,1.8,2.37,2.02,2.84.19.38-.39.69-.62.89-.42.38-1.18,1-1.23,1.59-.03.32.03.66-.06.97-.2.71-1.09,1.05-1.33,1.74-.18.5.02,1.07-.08,1.6-.07.34-.25.65-.31.99-.12.67.26,1.32.7,1.84,1.54,1.83,3.63,2.53,5.65,3.64,1.67.93,3.4,1.33,5.33,2.19,1.93.86,24.61,17.62,28.15,15.67,3.54-1.95,21.68-23.15,21.68-23.15,5.27-8.73,0-15.9,0-15.9Z"/><path class="cls-8" d="M265.85,203.62c-2.5.29-6.01-.18-10.91,5.09-4.9,5.26-11.03,14.2-11.03,14.2,0,0,1.7,8.54,10.97,10.33,0,0,8.58-8.79,10.97-13.64s2.95-12.71,0-15.98Z"/><path class="cls-13" d="M265.85,203.62c-2.5.29-6.01-.18-10.91,5.09-4.9,5.26-11.03,14.2-11.03,14.2,0,0,1.7,8.54,10.97,10.33,0,0,8.58-8.79,10.97-13.64s2.95-12.71,0-15.98Z"/></g></svg>